<?xml version="1.0" encoding="UTF-8"?>
<svg id="Layer_1" data-name="Layer 1" xmlns="http://www.w3.org/2000/svg" xmlns:xlink="http://www.w3.org/1999/xlink" viewBox="0 0 117.83 117.83">
  <defs>
    <clipPath id="clippath">
      <rect x="29.6" y="18.57" width="58.62" height="80.68" style="fill: none;"/>
    </clipPath>
  </defs>
  <circle cx="58.91" cy="58.91" r="58.91" style="fill: #bfd78d;"/>
  <g style="clip-path: url(#clippath);">
    <g>
      <path d="M63.15,18.61c.59,1.12,1.19,2.23,1.77,3.35,3.28,6.32,6.21,12.81,8.97,19.37,2.07,4.9,4.11,9.82,6.07,14.77,1.3,3.29,2.26,6.69,2.8,10.19,.69,4.49,.64,8.94-1.27,13.13-2.95,6.45-7.94,10.54-14.89,11.94-7.26,1.46-13.48-.88-18.78-5.85-3.41-3.21-5.67-7.15-6.49-11.8-.31-1.76-.43-3.56-.54-5.35-.09-1.46-.02-2.93-.02-4.41-.06,.07-.14,.15-.21,.23-1.49,1.9-2.16,4.12-2.52,6.46-.68,4.43-.35,8.78,1.5,12.89,3.68,8.18,9.88,13.39,18.68,15.25,5.31,1.13,10.41,.17,15.17-2.36,7.1-3.76,11.83-9.53,14.01-17.31,.95-3.4,1-6.88,.56-10.38-.71-5.64-2.65-10.91-5.08-16-4.82-10.07-10.26-19.78-16.33-29.15-1.08-1.66-2.18-3.31-3.27-4.96-.02-.02-.04-.04-.07-.06-.02,.01-.04,.02-.05,.04h0Z" style="fill: #fff;"/>
      <path d="M43.03,53.9c.92-1.31,1.98-2.42,3.29-3.28,.13-.09,.26-.17,.39-.25,1.17-.72,1.57-1.3,1.91-2.64-.08,.58-.17,1.15-.26,1.77,1.92-.8,3.92-1.26,5.99-1.44-2.5,.58-4.78,1.59-6.8,3.19,2.2-.47,4.36-.27,6.49,.4-.29-.04-.57-.08-.86-.12-.31-.04-.61-.08-.92-.11-1.31-.12-2.6-.04-3.85,.36-1.33,.42-2.43,1.16-3.26,2.32-1.73,2.4-2.83,5.03-3.08,8.09-.07-.17-.1-.27-.14-.37-.32-.73-.62-1.48-.99-2.19-.35-.67-.91-1.08-1.66-1.3-1.66-.48-3.29-1.04-4.93-1.61,.48,0,.95-.02,1.43,0,.48,.03,.95,.08,1.43,.17,.48,.09,.96,.22,1.49,.25-.6-.43-1.19-.87-1.8-1.28-.61-.41-1.26-.78-1.87-1.19,1.35,.19,2.58,.69,3.75,1.45,.03-.33,.06-.62,.09-.92,.07,.74,.45,1.26,.92,1.79,.68,.76,1.26,1.63,1.86,2.43-.03-.46-.05-1.01-.11-1.56-.04-.38-.13-.76-.22-1.14-.53-2.27-2.14-3.24-4.28-3.59-.76-.12-1.52-.25-2.28-.4-1.81-.36-3.36-1.14-4.38-2.81-.48,.56-.56,1.21-.66,1.84-.43,2.83,.38,5.21,2.66,7,1.06,.83,2.29,1.15,3.63,1.2,1.06,.04,2.14,.11,3.16,.35,1.61,.38,2.51,1.5,2.73,3.14,.11,.83,.18,1.66,.24,2.28,.35-1.36,.73-2.94,1.18-4.5,.25-.89,.59-1.76,.93-2.62,.11-.28,.3-.54,.49-.78,.18-.24,.43-.33,.74-.18,2.72,1.26,5.54,1.36,8.31,.37,6.37-2.29,10.44-6.76,12.02-13.39,.54-2.25,.32-4.5-.57-6.66-.02-.06-.05-.11-.08-.16,0-.01-.03-.01-.08-.05-.08,.21-.16,.41-.25,.62-.83,2-2.39,3.2-4.41,3.73-1.57,.41-3.2,.65-4.82,.87-1.97,.27-3.97,.41-5.87,1.03-4.14,1.36-6.86,5.31-6.7,9.67,0,.07,.01,.14,.02,.22h0Z" style="fill: #fff;"/>
      <path d="M77.55,71.68c.01-3.28-.85-6.36-2.04-9.38-1.38-3.53-3.23-6.82-5.06-10.12-.05-.1-.19-.15-.29-.23-.01,.13-.07,.28-.03,.39,1.08,2.71,2.22,5.41,3.26,8.14,1.01,2.67,1.69,5.43,1.98,8.28,.45,4.3-.83,8-3.6,11.29-2.67,3.17-5.98,5.22-9.97,6.22-.14,.04-.27,.16-.4,.24,.15,.08,.29,.21,.44,.23,3.99,.49,7.49-.68,10.51-3.26,3.36-2.88,4.99-6.61,5.16-11.01,0-.14,.02-.28,.02-.42,0-.12,0-.25,0-.37h0Z" style="fill: #fff;"/>
    </g>
  </g>
</svg>